<svg width="40" height="40" viewBox="0 0 40 40" fill="none" xmlns="http://www.w3.org/2000/svg">
<g clip-path="url(#clip0_723_1659)">
<path d="M33.4064 1.7C40.3331 1.26833 42.8498 15.1517 35.8331 21.5533C34.8177 22.6141 33.6033 23.4645 32.2593 24.0559C30.9152 24.6473 29.4678 24.9681 27.9998 25C25.8322 25.0346 23.6794 24.638 21.6664 23.8333V8.96667C25.0298 5.22333 29.1864 1.7 33.4064 1.7ZM19.9998 6.66667C20.8838 6.66667 21.7317 6.31548 22.3568 5.69036C22.9819 5.06523 23.3331 4.21739 23.3331 3.33333C23.3331 2.44928 22.9819 1.60143 22.3568 0.976311C21.7317 0.35119 20.8838 0 19.9998 0C19.1157 0 18.2679 0.35119 17.6427 0.976311C17.0176 1.60143 16.6664 2.44928 16.6664 3.33333C16.6664 4.21739 17.0176 5.06523 17.6427 5.69036C18.2679 6.31548 19.1157 6.66667 19.9998 6.66667ZM27.9848 28.3333C25.2353 28.3477 22.5139 27.7797 19.9998 26.6667C16.4998 28.5167 7.99977 29.6383 2.9781 24.9583C2.28453 26.2615 1.86014 27.6909 1.73015 29.1615C1.60016 30.632 1.76723 32.1137 2.22143 33.5183C2.50201 34.4728 2.99159 35.3529 3.65464 36.0947C4.31768 36.8364 5.13756 37.4212 6.05477 37.8067C6.94466 38.1875 7.9082 38.3653 8.87541 38.3272C9.84261 38.2892 10.7892 38.0362 11.6464 37.5867C14.1108 36.3086 16.3657 34.6619 18.3331 32.7033V36.6667C18.3331 37.1087 18.5087 37.5326 18.8213 37.8452C19.1338 38.1577 19.5577 38.3333 19.9998 38.3333C20.4418 38.3333 20.8657 38.1577 21.1783 37.8452C21.4908 37.5326 21.6664 37.1087 21.6664 36.6667V32.7033C23.6369 34.6627 25.8952 36.3095 28.3631 37.5867C29.2203 38.0362 30.1669 38.2892 31.1341 38.3272C32.1013 38.3653 33.0649 38.1875 33.9548 37.8067C34.872 37.4212 35.6918 36.8364 36.3549 36.0947C37.0179 35.3529 37.5075 34.4728 37.7881 33.5183C38.2423 32.1137 38.4094 30.632 38.2794 29.1615C38.1494 27.6909 37.725 26.2615 37.0314 24.9583C34.499 27.0993 31.3006 28.2925 27.9848 28.3333ZM12.0098 25C14.1739 25.0321 16.3229 24.6356 18.3331 23.8333V8.955C12.5331 1.86 0.398099 -4.27833 0.00976562 12.14C0.115226 15.7022 1.6108 19.0816 4.17643 21.555C6.23898 23.6801 9.04954 24.9161 12.0098 25Z" fill="black"/>
</g>
<defs>
<clipPath id="clip0_723_1659">
<rect width="40" height="40" fill="white"/>
</clipPath>
</defs>
</svg>
