<svg width="40" height="40" viewBox="0 0 40 40" fill="none" xmlns="http://www.w3.org/2000/svg">
<g clip-path="url(#clip0_723_1667)">
<path d="M11.6668 13.3333V11.6667C11.6663 9.81899 12.2799 8.02355 13.411 6.56261C14.5422 5.10167 16.1268 4.05808 17.9157 3.59592C19.7046 3.13376 21.5964 3.27923 23.2937 4.00946C24.9909 4.7397 26.3973 6.01328 27.2918 7.62999L30.2068 6.01166C28.954 3.74885 26.9847 1.96652 24.6086 0.944845C22.2324 -0.0768315 19.5841 -0.279928 17.0799 0.367481C14.5758 1.01489 12.3578 2.4761 10.7745 4.52141C9.19131 6.56672 8.33263 9.08017 8.3335 11.6667V13.3333H3.3335V35C3.3335 36.3261 3.86028 37.5978 4.79796 38.5355C5.73564 39.4732 7.00741 40 8.3335 40H31.6668C32.9929 40 34.2647 39.4732 35.2024 38.5355C36.14 37.5978 36.6668 36.3261 36.6668 35V13.3333H11.6668ZM21.6668 30H18.3335V23.3333H21.6668V30Z" fill="black"/>
</g>
<defs>
<clipPath id="clip0_723_1667">
<rect width="40" height="40" fill="white"/>
</clipPath>
</defs>
</svg>
